<svg xmlns="http://www.w3.org/2000/svg" width="49.878" height="36.275" viewBox="0 0 49.878 36.275">
  <g id="_3_User" data-name="3 User" transform="translate(0 0)">
    <path id="Fill_1" data-name="Fill 1" d="M14.421,0C6.6,0,0,1.278,0,6.211s6.642,6.168,14.421,6.168c7.822,0,14.421-1.278,14.421-6.211S22.2,0,14.421,0" transform="translate(10.402 23.896)" fill="#fff"/>
    <path id="Fill_3" data-name="Fill 3" d="M9.543,19.2a9.538,9.538,0,0,0,9.543-9.6A9.543,9.543,0,1,0,0,9.6a9.538,9.538,0,0,0,9.543,9.6" transform="translate(15.28 0)" fill="#fff"/>
    <path id="Fill_6" data-name="Fill 6" d="M9.579,10.231A8.1,8.1,0,0,0,1.817,0,8.133,8.133,0,0,0,.209.165.308.308,0,0,0,.022.278.235.235,0,0,0,.061.527,13.166,13.166,0,0,1,2.48,8.169,13.064,13.064,0,0,1,.249,15.517a.359.359,0,0,0,.242.553,7.441,7.441,0,0,0,1.1.106,7.965,7.965,0,0,0,7.992-5.945" transform="translate(35.963 1.602)" fill="#fff"/>
    <path id="Fill_8" data-name="Fill 8" d="M12.259,3.6C11.577,2.143,9.93,1.14,7.427.648A35.267,35.267,0,0,0,.074.005.084.084,0,0,0,0,.062.1.1,0,0,0,.066.17C1.441.854,6.753,3.829,6.085,10.1a.411.411,0,0,0,.459.466c1.307-.188,4.671-.915,5.715-3.179a4.358,4.358,0,0,0,0-3.785" transform="translate(37.186 20.919)" fill="#fff"/>
    <path id="Fill_11" data-name="Fill 11" d="M9.64.165A7.967,7.967,0,0,0,8.032,0,8.1,8.1,0,0,0,.272,10.231a7.961,7.961,0,0,0,7.99,5.945,7.7,7.7,0,0,0,1.1-.106.359.359,0,0,0,.242-.553A13.243,13.243,0,0,1,9.79.527.234.234,0,0,0,9.827.278.293.293,0,0,0,9.64.165" transform="translate(4.064 1.602)" fill="#fff"/>
    <path id="Fill_13" data-name="Fill 13" d="M5.263.647C2.76,1.139,1.116,2.141.434,3.6a4.349,4.349,0,0,0,0,3.787c1.043,2.262,4.407,2.991,5.715,3.177a.408.408,0,0,0,.457-.466C5.937,3.83,11.25.855,12.626.171a.107.107,0,0,0,.063-.11.076.076,0,0,0-.071-.055A35.179,35.179,0,0,0,5.263.647" transform="translate(0 20.92)" fill="#fff"/>
  </g>
</svg>
