<svg xmlns="http://www.w3.org/2000/svg" width="36.667" height="28.333" viewBox="0 0 36.667 28.333">
  <g id="Group_2966" data-name="Group 2966" transform="translate(-340.333 -584.666)">
    <path id="Path_2733" data-name="Path 2733" d="M34.333,5.333A19.674,19.674,0,0,0,28.5,4.5c-3.25,0-6.75.667-9.167,2.5-2.417-1.833-5.917-2.5-9.167-2.5S3.417,5.167,1,7V31.417a.9.9,0,0,0,.833.833c.167,0,.25-.083.417-.083a20.342,20.342,0,0,1,7.917-1.833c3.25,0,6.75.667,9.167,2.5a20.075,20.075,0,0,1,9.167-2.5,16.964,16.964,0,0,1,7.917,1.75.751.751,0,0,0,.417.083.9.9,0,0,0,.833-.833V7A11.368,11.368,0,0,0,34.333,5.333Zm0,22.5A19.367,19.367,0,0,0,28.5,27a20.075,20.075,0,0,0-9.167,2.5V10.333a20.075,20.075,0,0,1,9.167-2.5,19.367,19.367,0,0,1,5.833.833Z" transform="translate(339.333 580.166)" fill="#fff"/>
    <path id="Path_2734" data-name="Path 2734" d="M657.719,2486.828s-6.216-5.012-15.223,1.638v19.517a19.877,19.877,0,0,1,15.317-1.811C657.813,2497.258,657.719,2486.828,657.719,2486.828Z" transform="translate(-284 -1898)" fill="#1b7d88"/>
  </g>
</svg>
