<svg xmlns="http://www.w3.org/2000/svg" width="22.481" height="17.372" viewBox="0 0 22.481 17.372">
  <g id="Group_2967" data-name="Group 2967" transform="translate(-340.333 -584.666)">
    <path id="Path_2733" data-name="Path 2733" d="M21.437,5.011A12.063,12.063,0,0,0,17.861,4.5a9.5,9.5,0,0,0-5.62,1.533A9.5,9.5,0,0,0,6.62,4.5,9.5,9.5,0,0,0,1,6.033V21a.549.549,0,0,0,.511.511c.1,0,.153-.051.255-.051A12.472,12.472,0,0,1,6.62,20.339a9.5,9.5,0,0,1,5.62,1.533,12.309,12.309,0,0,1,5.62-1.533,10.4,10.4,0,0,1,4.854,1.073.461.461,0,0,0,.255.051.549.549,0,0,0,.511-.511V6.033A6.97,6.97,0,0,0,21.437,5.011Zm0,13.8a11.874,11.874,0,0,0-3.577-.511,12.309,12.309,0,0,0-5.62,1.533V8.077a12.309,12.309,0,0,1,5.62-1.533,11.874,11.874,0,0,1,3.577.511Z" transform="translate(339.333 580.166)" fill="#fff"/>
    <path id="Path_2734" data-name="Path 2734" d="M651.829,2486.127s-3.811-3.073-9.334,1V2499.1a12.187,12.187,0,0,1,9.391-1.11C651.887,2492.522,651.829,2486.127,651.829,2486.127Z" transform="translate(-291.027 -1898.909)" fill="#1b7d88"/>
  </g>
</svg>
