<svg xmlns="http://www.w3.org/2000/svg" width="9.032" height="23.3" viewBox="0 0 9.032 23.3">
  <g id="Group_2978" data-name="Group 2978" transform="translate(0 0)">
    <path id="Path_2739" data-name="Path 2739" d="M1989.743,9039.6c4.431,0,0-6.866,0-6.866S1985.312,9039.6,1989.743,9039.6Z" transform="translate(-1985.351 -9032.733)" fill="#fff"/>
    <rect id="Rectangle_1149" data-name="Rectangle 1149" width="1.806" height="17.161" transform="translate(3.613 6.139)" fill="#fff"/>
    <g id="Group_2975" data-name="Group 2975" transform="translate(0 5.772)">
      <path id="Path_2740" data-name="Path 2740" d="M1997.835,8932.563c.092-1.579-3.869-4.025-3.869-4.025s-.63,5.979,3.713,6.057C1997.836,8932.614,1997.744,8934.141,1997.835,8932.563Z" transform="translate(-1993.934 -8928.537)" fill="#fff"/>
      <path id="Path_2741" data-name="Path 2741" d="M1993.936,8932.563c-.092-1.579,3.869-4.025,3.869-4.025s.63,5.979-3.713,6.057C1993.935,8932.614,1994.027,8934.141,1993.936,8932.563Z" transform="translate(-1988.805 -8928.537)" fill="#fff"/>
    </g>
    <g id="Group_2976" data-name="Group 2976" transform="translate(0 10.918)">
      <path id="Path_2743" data-name="Path 2743" d="M1997.835,8932.563c.092-1.579-3.869-4.025-3.869-4.025s-.63,5.979,3.713,6.057C1997.836,8932.614,1997.744,8934.141,1997.835,8932.563Z" transform="translate(-1993.934 -8928.537)" fill="#fff"/>
      <path id="Path_2742" data-name="Path 2742" d="M1993.936,8932.563c-.092-1.579,3.869-4.025,3.869-4.025s.63,5.979-3.713,6.057C1993.935,8932.614,1994.027,8934.141,1993.936,8932.563Z" transform="translate(-1988.805 -8928.537)" fill="#fff"/>
    </g>
    <g id="Group_2977" data-name="Group 2977" transform="translate(0 16.066)">
      <path id="Path_2745" data-name="Path 2745" d="M1997.835,8932.563c.092-1.579-3.869-4.025-3.869-4.025s-.63,5.979,3.713,6.057C1997.836,8932.614,1997.744,8934.141,1997.835,8932.563Z" transform="translate(-1993.934 -8928.537)" fill="#fff"/>
      <path id="Path_2744" data-name="Path 2744" d="M1993.936,8932.563c-.092-1.579,3.869-4.025,3.869-4.025s.63,5.979-3.713,6.057C1993.935,8932.614,1994.027,8934.141,1993.936,8932.563Z" transform="translate(-1988.805 -8928.537)" fill="#fff"/>
    </g>
  </g>
</svg>
