<svg xmlns="http://www.w3.org/2000/svg" width="19.306" height="16.674" viewBox="0 0 19.306 16.674">
  <g id="Group_2963" data-name="Group 2963" transform="translate(-65.389 -682.498)">
    <ellipse id="Ellipse_1" data-name="Ellipse 1" cx="3.51" cy="3.51" rx="3.51" ry="3.51" transform="translate(68.899 685.131)" fill="#fff"/>
    <path id="Path_2720" data-name="Path 2720" d="M8.021,13.409C5.678,13.409,1,14.585,1,16.919v1.755H15.041V16.919C15.041,14.585,10.364,13.409,8.021,13.409Zm6.81-8.46L13.356,6.432a2.911,2.911,0,0,1,0,3.414l1.474,1.483A4.491,4.491,0,0,0,14.831,4.949ZM17.736,2l-1.43,1.43a7,7,0,0,1,0,9.425l1.43,1.43A8.626,8.626,0,0,0,17.736,2Z" transform="translate(64.389 680.498)" fill="#fff"/>
  </g>
</svg>
