<svg xmlns="http://www.w3.org/2000/svg" width="11.927" height="10.6" viewBox="0 0 11.927 10.6">
  <path id="edit" d="M8.336,1.821,10.2,3.688a.2.2,0,0,1,0,.286L5.682,8.5,3.76,8.71a.4.4,0,0,1-.445-.445l.213-1.922L8.051,1.821a.2.2,0,0,1,.286,0Zm3.354-.474L10.68.336a.81.81,0,0,0-1.143,0L8.8,1.069a.2.2,0,0,0,0,.286l1.868,1.868a.2.2,0,0,0,.286,0l.733-.733A.81.81,0,0,0,11.691,1.347Zm-3.74,5.92V9.374H1.325V2.748H6.084a.255.255,0,0,0,.176-.072l.828-.828a.248.248,0,0,0-.176-.424H.994A.994.994,0,0,0,0,2.417V9.706a.994.994,0,0,0,.994.994H8.283a.994.994,0,0,0,.994-.994V6.438a.249.249,0,0,0-.424-.176l-.828.828A.255.255,0,0,0,7.951,7.266Z" transform="translate(0 -0.1)" fill="#1b7d88"/>
</svg>
