<svg xmlns="http://www.w3.org/2000/svg" width="29.808" height="39.744" viewBox="0 0 29.808 39.744">
  <path id="file-alt" d="M17.388,10.557V0H1.863A1.859,1.859,0,0,0,0,1.863V37.881a1.859,1.859,0,0,0,1.863,1.863H27.945a1.859,1.859,0,0,0,1.863-1.863V12.42H19.251A1.868,1.868,0,0,1,17.388,10.557Zm4.968,18.32a.934.934,0,0,1-.932.932H8.384a.934.934,0,0,1-.932-.932v-.621a.934.934,0,0,1,.932-.932H21.425a.934.934,0,0,1,.932.932Zm0-4.968a.934.934,0,0,1-.932.932H8.384a.934.934,0,0,1-.932-.932v-.621a.934.934,0,0,1,.932-.932H21.425a.934.934,0,0,1,.932.932Zm0-5.589v.621a.934.934,0,0,1-.932.932H8.384a.934.934,0,0,1-.932-.932V18.32a.934.934,0,0,1,.932-.932H21.425A.934.934,0,0,1,22.356,18.32Zm7.452-8.857v.474H19.872V0h.474a1.862,1.862,0,0,1,1.32.543l7.6,7.607A1.857,1.857,0,0,1,29.808,9.463Z" fill="#fff"/>
</svg>
