<svg xmlns="http://www.w3.org/2000/svg" width="62.656" height="41.771" viewBox="0 0 62.656 41.771">
  <path id="folder-open" d="M62.3,88.812l-7.878,13.505a6.961,6.961,0,0,1-6.013,3.454H4.9a2.611,2.611,0,0,1-2.255-3.926l7.878-13.505a6.962,6.962,0,0,1,6.013-3.454H60.042A2.611,2.611,0,0,1,62.3,88.812ZM16.534,81.4H52.214V76.183a5.221,5.221,0,0,0-5.221-5.221h-17.4L22.626,64H5.221A5.221,5.221,0,0,0,0,69.221V99.467L7.514,86.585A10.478,10.478,0,0,1,16.534,81.4Z" transform="translate(0 -64)" fill="#fff"/>
</svg>
