<svg xmlns="http://www.w3.org/2000/svg" width="24.316" height="21.002" viewBox="0 0 24.316 21.002">
  <g id="Group_2963" data-name="Group 2963" transform="translate(-65.389 -682.498)">
    <ellipse id="Ellipse_1" data-name="Ellipse 1" cx="4.421" cy="4.421" rx="4.421" ry="4.421" transform="translate(69.81 685.814)" fill="#1b7d88"/>
    <path id="Path_2720" data-name="Path 2720" d="M9.843,16.37C6.891,16.37,1,17.851,1,20.791V23H18.686V20.791C18.686,17.851,12.794,16.37,9.843,16.37ZM18.42,5.714,16.563,7.582a3.667,3.667,0,0,1,0,4.3L18.42,13.75A5.656,5.656,0,0,0,18.42,5.714ZM22.079,2l-1.8,1.8a8.819,8.819,0,0,1,0,11.871l1.8,1.8A10.865,10.865,0,0,0,22.079,2Z" transform="translate(64.389 680.498)" fill="#1b7d88"/>
  </g>
</svg>
