<svg xmlns="http://www.w3.org/2000/svg" width="24" height="37.764" viewBox="0 0 24 37.764">
  <g id="Category" transform="translate(-0.024 13.74)">
    <path id="Category-2" data-name="Category" d="M16.9,24a3.058,3.058,0,0,1-3.048-3.073v-4.09A3.051,3.051,0,0,1,16.9,13.764h4.055A3.058,3.058,0,0,1,24,16.837v4.09A3.066,3.066,0,0,1,20.952,24ZM3.047,24A3.065,3.065,0,0,1,0,20.928V16.836A3.085,3.085,0,0,1,.114,16,3.08,3.08,0,0,1,0,15.164V11.073c0-.064,0-.127.006-.19S0,10.756,0,10.691V3.073A3.065,3.065,0,0,1,3.047,0H7.1a3.058,3.058,0,0,1,3.048,3.073v7.618q0,.1-.005.192c0,.063.005.126.005.19v4.091A3.115,3.115,0,0,1,10.04,16a3.12,3.12,0,0,1,.113.836v4.091A3.057,3.057,0,0,1,7.1,24ZM16.9,10.236a3.05,3.05,0,0,1-3.048-3.072V3.074A3.058,3.058,0,0,1,16.9,0h4.055A3.065,3.065,0,0,1,24,3.074v4.09a3.058,3.058,0,0,1-3.048,3.072Zm0-13.764H13.2a3.061,3.061,0,0,1-.509-.042,3.1,3.1,0,0,1-.512.042H8.124a3.061,3.061,0,0,1-.508-.042,3.1,3.1,0,0,1-.512.042H3.047A3.057,3.057,0,0,1,0-6.6v-4.091a3.065,3.065,0,0,1,3.047-3.073H7.1a3.1,3.1,0,0,1,.512.043,3.061,3.061,0,0,1,.508-.043H12.18a3.1,3.1,0,0,1,.512.043,3.061,3.061,0,0,1,.509-.043h7.752A3.058,3.058,0,0,1,24-10.691V-6.6a3.05,3.05,0,0,1-3.048,3.072Z" transform="translate(0.024 0.024)" fill="#1b7d88"/>
  </g>
</svg>
