<svg xmlns="http://www.w3.org/2000/svg" width="41.713" height="40.249" viewBox="0 0 41.713 40.249">
  <g id="Group_2975" data-name="Group 2975" transform="translate(-292.144 -137.376)">
    <g id="Polygon_1" data-name="Polygon 1" transform="translate(292.144 153.376) rotate(-30)" fill="#fff">
      <path d="M 23.70984077453613 27.5 L 8.290160179138184 27.5 L 0.5758742690086365 13.99999904632568 L 8.290160179138184 0.4999990463256836 L 23.70984077453613 0.4999990463256836 L 31.42412567138672 13.99999904632568 L 23.70984077453613 27.5 Z" stroke="none"/>
      <path d="M 8.580320358276367 0.9999980926513672 L 1.151748657226562 13.99999904632568 L 8.580320358276367 27 L 23.41967964172363 27 L 30.84825134277344 13.99999904632568 L 23.41967964172363 0.9999980926513672 L 8.580320358276367 0.9999980926513672 M 8 -1.9073486328125e-06 L 24 -1.9073486328125e-06 L 32 13.99999904632568 L 24 28 L 8 28 L 0 13.99999904632568 L 8 -1.9073486328125e-06 Z" stroke="none" fill="#154c61"/>
    </g>
    <path id="bug" d="M20.593,11.619a1.3,1.3,0,0,1-1.313,1.251H17.054v.644a5.769,5.769,0,0,1-.547,2.459L18.929,18.4a1.287,1.287,0,0,1-1.82,1.82l-2.2-2.2a5.767,5.767,0,0,1-3.645,1.291V9.492a.483.483,0,0,0-.483-.483H9.814a.483.483,0,0,0-.483.483v9.814a5.767,5.767,0,0,1-3.645-1.291l-2.2,2.2a1.287,1.287,0,0,1-1.82-1.82l2.422-2.422a5.769,5.769,0,0,1-.547-2.459V12.87H1.314A1.3,1.3,0,0,1,0,11.619,1.287,1.287,0,0,1,1.288,10.3H3.54V7.934L1.665,6.058a1.287,1.287,0,0,1,1.82-1.82l2.2,2.2h9.23l2.2-2.2a1.287,1.287,0,0,1,1.82,1.82L17.054,7.934V10.3h2.252A1.287,1.287,0,0,1,20.593,11.619Z" transform="translate(302.703 145.273)" fill="#154c61"/>
  </g>
</svg>
