<svg xmlns="http://www.w3.org/2000/svg" width="20.592" height="16.731" viewBox="0 0 20.592 16.731">
  <path id="bug" d="M20.593,11.619a1.3,1.3,0,0,1-1.313,1.251H17.054v.644a5.769,5.769,0,0,1-.547,2.459L18.929,18.4a1.287,1.287,0,0,1-1.82,1.82l-2.2-2.2a5.767,5.767,0,0,1-3.645,1.291V9.492a.483.483,0,0,0-.483-.483H9.814a.483.483,0,0,0-.483.483v9.814a5.767,5.767,0,0,1-3.645-1.291l-2.2,2.2a1.287,1.287,0,0,1-1.82-1.82l2.422-2.422a5.769,5.769,0,0,1-.547-2.459V12.87H1.314A1.3,1.3,0,0,1,0,11.619,1.287,1.287,0,0,1,1.288,10.3H3.54V7.934L1.665,6.058a1.287,1.287,0,0,1,1.82-1.82l2.2,2.2h9.23l2.2-2.2a1.287,1.287,0,0,1,1.82,1.82L17.054,7.934V10.3h2.252A1.287,1.287,0,0,1,20.593,11.619Z" transform="translate(-0.001 -3.861)" fill="#fff"/>
</svg>
